<svg version="1.1" preserveAspectRatio="none" xmlns="http://www.w3.org/2000/svg" width="500" height="500" viewBox="0 0 500 500"><rect width="100%" height="100%" fill="#F4F3EF" fill-opacity="1"/><svg viewBox="965.8497 820.0723 566.068 120" width="333" height="70.59222566900091" x="83.5px" y="214.7039px" xmlns="http://www.w3.org/2000/svg" xmlns:xlink="http://www.w3.org/1999/xlink" preserveAspectRatio="none"><defs></defs><style>.background {fill:#F4F3EF;fill-opacity:1;}.icon1 {fill:#F3B340;fill-opacity:1;}.icon1-str {stroke:#F3B340;stroke-opacity:1;}.icon2 {fill:#E66A2C;fill-opacity:1;}.icon3 {fill:#F094A7;fill-opacity:0.95;}.icon3-str {stroke:#F094A7;stroke-opacity:0.95;}.icon4 {fill:#F3B340;fill-opacity:1;}.icon5 {fill:#E66A2C;fill-opacity:1;}.icon6 {fill:#F094A7;fill-opacity:0.95;}.icon7 {fill:#F3B340;fill-opacity:1;}.icon8 {fill:#E66A2C;fill-opacity:1;}</style><g opacity="1" transform="rotate(0 1081.8495 820.0723)">
<svg width="450.0682" height="120" x="1081.8495" y="820.0723" version="1.1" preserveAspectRatio="none" viewBox="0 0 450.0682 120">
  <defs><rect x="0" y="0" width="450.0682" height="120" rx="0px" ry="0px" id="id-B7crM0kCi1743982493642"></rect></defs><use class="icon1 icon3-str" style="stroke-width:0;" xlink:href="#id-B7crM0kCi1743982493642"></use>
</svg>
</g><g opacity="1" transform="rotate(0 1111.8495 850.0723)">
<svg width="390.0682" height="60" x="1111.8495" y="850.0723" version="1.1" preserveAspectRatio="none" viewBox="3.32 -28.48 237.68 36.56">
  <g transform="matrix(1 0 0 1 0 0)" class="background"><path id="id-D6z1nYkh9" d="M34.88 0L28.80 0L28.76-16.80L20.52-2.96L17.60-2.96L9.40-16.44L9.40 0L3.32 0L3.32-28L8.68-28L19.16-10.60L29.48-28L34.80-28L34.88 0Z M51.32 0.32Q47.92 0.32 45.22-1.10Q42.52-2.52 41-5.04Q39.48-7.56 39.48-10.76L39.48-10.76Q39.48-13.96 41-16.48Q42.52-19 45.22-20.42Q47.92-21.84 51.32-21.84L51.32-21.84Q54.72-21.84 57.40-20.42Q60.08-19 61.60-16.48Q63.12-13.96 63.12-10.76L63.12-10.76Q63.12-7.56 61.60-5.04Q60.08-2.52 57.40-1.10Q54.72 0.32 51.32 0.32L51.32 0.32ZM51.32-4.80Q53.72-4.80 55.26-6.42Q56.80-8.04 56.80-10.76L56.80-10.76Q56.80-13.48 55.26-15.10Q53.72-16.72 51.32-16.72L51.32-16.72Q48.92-16.72 47.36-15.10Q45.80-13.48 45.80-10.76L45.80-10.76Q45.80-8.04 47.36-6.42Q48.92-4.80 51.32-4.80L51.32-4.80Z M80.36-21.84Q84.36-21.84 86.82-19.44Q89.28-17.04 89.28-12.32L89.28-12.32L89.28 0L83.04 0L83.04-11.36Q83.04-13.92 81.92-15.18Q80.80-16.44 78.68-16.44L78.68-16.44Q76.32-16.44 74.92-14.98Q73.52-13.52 73.52-10.64L73.52-10.64L73.52 0L67.28 0L67.28-21.52L73.24-21.52L73.24-19Q74.48-20.36 76.32-21.10Q78.16-21.84 80.36-21.84L80.36-21.84Z M116.24-10.68Q116.24-10.56 116.12-9L116.12-9L99.84-9Q100.28-7 101.92-5.84Q103.56-4.68 106-4.68L106-4.68Q107.68-4.68 108.98-5.18Q110.28-5.68 111.40-6.76L111.40-6.76L114.72-3.16Q111.68 0.32 105.84 0.32L105.84 0.32Q102.20 0.32 99.40-1.10Q96.60-2.52 95.08-5.04Q93.56-7.56 93.56-10.76L93.56-10.76Q93.56-13.92 95.06-16.46Q96.56-19 99.18-20.42Q101.80-21.84 105.04-21.84L105.04-21.84Q108.20-21.84 110.76-20.48Q113.32-19.12 114.78-16.58Q116.24-14.04 116.24-10.68L116.24-10.68ZM105.08-17.12Q102.96-17.12 101.52-15.92Q100.08-14.72 99.76-12.64L99.76-12.64L110.36-12.64Q110.04-14.68 108.60-15.90Q107.16-17.12 105.08-17.12L105.08-17.12Z M135.36-21.52L141.36-21.52L131.64 1.32Q130.16 5.04 127.98 6.56Q125.80 8.08 122.72 8.08L122.72 8.08Q121.04 8.08 119.40 7.56Q117.76 7.04 116.72 6.12L116.72 6.12L119 1.68Q119.72 2.32 120.66 2.68Q121.60 3.04 122.52 3.04L122.52 3.04Q123.80 3.04 124.60 2.42Q125.40 1.80 126.04 0.36L126.04 0.36L126.12 0.16L116.80-21.52L123.24-21.52L129.28-6.92L135.36-21.52Z M163.12-6.24L163.12-14.44L169.04-14.44L169.04-3.08Q166.76-1.36 163.76-0.44Q160.76 0.48 157.72 0.48L157.72 0.48Q153.36 0.48 149.88-1.38Q146.40-3.24 144.42-6.54Q142.44-9.84 142.44-14L142.44-14Q142.44-18.16 144.42-21.46Q146.40-24.76 149.92-26.62Q153.44-28.48 157.84-28.48L157.84-28.48Q161.52-28.48 164.52-27.24Q167.52-26 169.56-23.64L169.56-23.64L165.40-19.80Q162.40-22.96 158.16-22.96L158.16-22.96Q155.48-22.96 153.40-21.84Q151.32-20.72 150.16-18.68Q149.00-16.64 149.00-14L149.00-14Q149.00-11.40 150.16-9.36Q151.32-7.32 153.38-6.18Q155.44-5.04 158.08-5.04L158.08-5.04Q160.88-5.04 163.12-6.24L163.12-6.24Z M190.04-21.52L196.28-21.52L196.28 0L190.36 0L190.36-2.56Q189.12-1.16 187.40-0.42Q185.68 0.32 183.68 0.32L183.68 0.32Q179.44 0.32 176.96-2.12Q174.48-4.56 174.48-9.36L174.48-9.36L174.48-21.52L180.72-21.52L180.72-10.28Q180.72-5.08 185.08-5.08L185.08-5.08Q187.32-5.08 188.68-6.54Q190.04-8 190.04-10.88L190.04-10.88L190.04-21.52Z M208.04-18.68Q209.16-20.24 211.06-21.04Q212.96-21.84 215.44-21.84L215.44-21.84L215.44-16.08Q214.40-16.16 214.04-16.16L214.04-16.16Q211.36-16.16 209.84-14.66Q208.32-13.16 208.32-10.16L208.32-10.16L208.32 0L202.08 0L202.08-21.52L208.04-21.52L208.04-18.68Z M234.76-21.52L241.00-21.52L241.00 0L235.08 0L235.08-2.56Q233.84-1.16 232.12-0.42Q230.40 0.32 228.40 0.32L228.40 0.32Q224.16 0.32 221.68-2.12Q219.20-4.56 219.20-9.36L219.20-9.36L219.20-21.52L225.44-21.52L225.44-10.28Q225.44-5.08 229.80-5.08L229.80-5.08Q232.04-5.08 233.40-6.54Q234.76-8 234.76-10.88L234.76-10.88L234.76-21.52Z"/></g>
</svg>
</g><g opacity="1" transform="rotate(0 965.8497 820.0723)">
<svg width="119.9998" height="120" x="965.8497" y="820.0723" version="1.1" preserveAspectRatio="none" viewBox="0 0 119.9998 120">
  <defs><rect x="2.399996" y="2.399996" width="115.19980799999999" height="115.200008" rx="0px" ry="0px" id="id-tBXipXk0b1743982493642"></rect></defs><use class="background icon1-str" style="stroke-width:4.799992;" xlink:href="#id-tBXipXk0b1743982493642"></use>
</svg>
</g><g opacity="1" transform="rotate(0 985.8497 837.4895)">
<svg width="79.9998" height="85.1656" x="985.8497" y="837.4895" version="1.1" preserveAspectRatio="none" viewBox="2.9997589588165283 -0.00009918212890625 93.93540954589844 100.0010986328125">
  <g transform="matrix(1 0 0 1 0 0)" class="icon1"><path d="m66.379 69.641c8.3906 0 15.18 6.7891 15.18 15.18 0 8.3906-6.7891 15.18-15.18 15.18-8.2539 0-15.047-6.7891-15.047-15.18 0-8.3906 6.7891-15.18 15.047-15.18zm-20.906-23.168c16.645 0 30.758 7.1914 35.82 17.176 0.26562 0 0.39844-0.13281 0.66406-0.13281 1.5977-0.39844 2.5312-0.66406 4.1289-0.66406 0.80078-1.4648 2.1289-2.9297 3.3281-3.7266 0.13281-0.13281 1.1992-0.26562 1.332-0.39844l0.53125 2.6641s-0.13281 0-0.13281 0.13281c-0.66406 0.39844-1.332 0.93359-1.8633 1.7305 4.3945 0.93359 6.5234 2.6641 7.3242 4.5273 0.66406 1.5977 0.26562 3.0625-0.66406 4.2617-0.93359 1.0664-2.2617 1.8633-3.8633 1.8633-2.2617 0.13281-4.9258-0.93359-6.6562-4.1289-0.66406-1.1992-0.80078-2.5312-0.53125-3.9961-0.93359 0.13281-1.1992 0.26562-2.1289 0.53125h-0.26562c0.53125 1.7305 0.80078 3.5938 0.80078 5.4609 0 1.7305-0.26562 3.3281-0.66406 5.0586-0.93359-1.7305-1.9961-3.3281-3.4609-4.793-7.0586-6.9258-18.375-6.9258-25.434 0-6.7891 6.7891-7.0586 17.445-1.0664 24.5-2.2617 0.26563-4.793 0.39844-7.1914 0.39844-4.5273 0-8.9219-0.53125-12.918-1.4648l-0.53125 4.3945h-8.6562c-0.66406-3.0625-1.7305-6.125-3.1953-9.3203-4.3945-2.6641-7.9883-5.9922-10.121-9.7188h-3.1953c-2.1289 0-3.8633-1.7305-3.8633-3.8633v-5.5938c0-2.1289 1.7305-3.8633 3.8633-3.8633h1.1992c1.0664-4.2617 3.7266-8.1211 7.5898-11.316-1.1992-2.5312-2.9297-4.3945-7.1914-5.3281 6.2578-4.793 11.316-5.4609 15.445 0.13281 6.125-2.7969 13.582-4.5273 21.57-4.5273zm-22.77 15.445c1.332 0 2.5312 1.1992 2.5312 2.6641 0 1.332-1.1992 2.5312-2.5312 2.5312-1.4648 0-2.6641-1.1992-2.6641-2.5312 0-1.4648 1.1992-2.6641 2.6641-2.6641zm13.98-8.7891c2.9297-0.93359 7.3242-1.332 11.586-1.1992 3.9961 0.13281 7.8555 0.66406 10.652 1.7305l-1.4648 3.3281c-2.2617-0.93359-5.7266-1.332-9.1875-1.4648-3.9961-0.13281-7.9883 0.26562-10.52 1.0664zm51.797 12.918c-0.13281-0.13281-0.39844-0.13281-0.66406-0.13281-0.26562 0.93359-0.26562 1.8633 0.13281 2.5312 1.0664 1.9961 2.6641 2.6641 3.8633 2.6641 0.80078-0.13281 1.4648-0.39844 1.8633-0.93359 0.39844-0.39844 0.39844-0.80078 0.26562-1.332-0.39844-0.93359-1.9961-2.1289-5.4609-2.7969zm-42.078-66.047c11.453 0 20.641 9.1875 20.641 20.641 0 11.316-9.1875 20.641-20.641 20.641-11.316 0-20.508-9.3203-20.508-20.641 0-11.453 9.1875-20.641 20.508-20.641zm-1.0664 27.562v-6.125c-1.8633-0.66406-3.3281-1.4648-4.2617-2.5312-0.93359-1.1992-1.332-2.5312-1.332-4.1289s0.53125-3.0625 1.5977-4.1289c0.93359-1.0664 2.3984-1.7305 3.9961-1.8633v-1.4648h2.2617v1.4648c1.5977 0.13281 2.7969 0.66406 3.7266 1.5977 0.93359 0.80078 1.5977 1.9961 1.8633 3.5938l-3.8633 0.39844c-0.26562-1.1992-0.80078-1.8633-1.7305-2.3984v5.8594c2.3984 0.66406 3.9961 1.4648 4.793 2.5312 0.93359 1.0664 1.332 2.3984 1.332 3.9961 0 1.7305-0.53125 3.3281-1.5977 4.5273s-2.6641 1.9961-4.5273 2.2617v2.7969h-2.2617v-2.7969c-1.7305-0.13281-3.0625-0.80078-4.1289-1.8633-1.0664-1.0664-1.7305-2.5312-2.1289-4.5273l3.9961-0.39844c0.13281 0.80078 0.39844 1.4648 0.80078 1.9961 0.53125 0.53125 0.93359 1.0664 1.4648 1.1992zm0-15.578c-0.53125 0.13281-1.0664 0.53125-1.332 1.0664-0.39844 0.39844-0.53125 0.93359-0.53125 1.5977 0 0.39844 0.13281 0.93359 0.53125 1.4648 0.26562 0.39844 0.66406 0.80078 1.332 1.0664zm2.2617 15.844c0.66406-0.13281 1.332-0.53125 1.7305-1.0664 0.53125-0.53125 0.80078-1.1992 0.80078-1.8633 0-0.66406-0.26562-1.332-0.66406-1.7305-0.39844-0.53125-1.0664-0.93359-1.8633-1.1992v5.8594zm12.781 54.062c0.93359 0 1.8633 0.39844 2.5312 0.93359l6.7891-5.0586c-0.13281-0.26562-0.13281-0.53125-0.13281-0.80078 0-1.5977 1.332-2.9297 2.9297-2.9297s2.9297 1.332 2.9297 2.9297-1.332 2.9297-2.9297 2.9297c-0.66406 0-1.1992-0.13281-1.7305-0.53125l-6.6562 5.0586c0.13281 0.39844 0.26562 0.93359 0.26562 1.4648s-0.13281 1.0664-0.39844 1.4648l5.4609 4.3945c0.53125-0.26562 0.66406-0.53125 1.7305-0.53125 1.0664 0 2.9297 1.332 2.9297 2.9297 0 1.5977-1.332 2.9297-2.9297 2.9297-1.5977 0-2.9297-1.9961-2.9297-2.9297 0-0.93359 0-0.53125 0.13281-0.80078l-5.5938-4.3945c-0.66406 0.53125-1.4648 0.80078-2.3984 0.80078-2.1289 0-3.8633-1.7305-3.8633-3.8633 0-2.2617 1.7305-3.9961 3.8633-3.9961z" fill-rule="evenodd"></path></g>
</svg>
</g></svg></svg>